<?xml version="1.0" standalone="no"?>
<!DOCTYPE svg PUBLIC "-//W3C//DTD SVG 20010904//EN"
 "http://www.w3.org/TR/2001/REC-SVG-20010904/DTD/svg10.dtd">
<svg version="1.0" xmlns="http://www.w3.org/2000/svg"
 width="416.000000pt" height="416.000000pt" viewBox="0 0 416.000000 416.000000"
 preserveAspectRatio="xMidYMid meet">
<metadata>
Created by potrace 1.14, written by Peter Selinger 2001-2017
</metadata>
<g transform="translate(0.000000,416.000000) scale(0.100000,-0.100000)"
fill="#000000" stroke="none">
<path d="M1891 3307 c-5 -5 -7 -16 -4 -23 8 -21 112 -19 120 1 3 9 2 19 -1 22
-10 11 -105 10 -115 0z"/>
<path d="M2057 3299 c-3 -10 -2 -20 1 -23 7 -8 176 -8 196 0 19 7 21 33 4 35
-7 1 -54 2 -105 3 -80 2 -92 0 -96 -15z"/>
<path d="M1308 3275 c-15 -8 -29 -24 -33 -35 -3 -11 -14 -20 -24 -20 -31 0
-61 -38 -61 -76 0 -24 -9 -46 -25 -66 -30 -35 -26 -61 12 -96 21 -19 24 -26
12 -33 -8 -5 -18 -9 -22 -9 -17 0 -35 -63 -26 -94 11 -39 -2 -52 -58 -55 -19
-1 -45 -60 -39 -87 4 -15 22 -30 54 -45 66 -30 101 -32 138 -10 35 21 47 57
33 104 -7 24 -5 33 9 43 14 10 18 10 23 -4 4 -9 5 -19 4 -22 -3 -5 -12 -131
-20 -272 -3 -62 -38 -168 -51 -156 -2 3 -7 18 -10 34 -3 15 -7 31 -9 35 -3 4
-7 24 -11 45 -7 51 -22 106 -31 119 -15 20 -33 14 -39 -13 -3 -15 -17 -70 -30
-122 -12 -52 -26 -111 -29 -130 -3 -19 -10 -51 -15 -70 -11 -41 -4 -51 38 -52
50 -2 55 -48 6 -48 -27 0 -44 -28 -24 -40 13 -8 1843 -12 1873 -3 23 6 22 34
-2 40 -27 7 -15 55 12 52 57 -7 59 9 17 136 -17 49 -30 96 -30 103 0 30 -29
82 -43 76 -8 -3 -29 -51 -47 -106 l-32 -101 -29 61 c-29 61 -44 134 -40 200 1
21 3 22 16 8 23 -22 53 -29 93 -20 52 11 53 11 91 -2 59 -20 102 8 103 67 1
37 -30 69 -68 69 -12 0 -25 4 -29 9 -9 16 -131 52 -151 45 -10 -4 -29 -16 -41
-27 -17 -15 -23 -17 -24 -6 0 8 -2 31 -4 51 l-3 38 42 -6 c22 -3 55 -9 71 -13
41 -11 72 -5 104 20 61 48 69 119 18 171 -17 18 -40 38 -50 43 -10 6 -20 24
-22 40 -2 17 -9 45 -14 63 -5 17 -8 32 -5 32 2 0 -2 13 -11 30 -16 31 -31 37
-148 60 -74 15 -104 -1 -113 -60 -6 -36 -9 -40 -36 -40 -28 0 -79 -38 -89 -67
-3 -9 -53 -13 -185 -13 -99 -1 -185 -5 -192 -8 -7 -5 -8 -13 -2 -21 7 -12 45
-14 192 -14 l184 0 16 -28 c15 -26 15 -31 2 -59 -24 -47 -4 -96 50 -120 35
-16 37 -19 16 -19 -14 -1 -38 6 -54 14 -43 23 -83 19 -108 -10 -18 -21 -24
-23 -37 -11 -28 23 -147 65 -235 82 l-85 17 0 64 c0 71 -3 78 -26 70 -11 -5
-15 -22 -15 -71 0 -58 -2 -64 -22 -70 -40 -10 -48 -7 -48 20 0 14 -5 34 -11
46 -6 11 -12 34 -15 51 -7 63 -95 93 -127 43 -9 -13 -29 -26 -44 -29 -30 -6
-53 -40 -53 -77 0 -10 -4 -22 -10 -25 -13 -8 -13 -62 0 -70 15 -9 -23 -54 -62
-75 -18 -9 -39 -30 -47 -46 -7 -16 -30 -49 -51 -74 -20 -25 -52 -71 -69 -103
-18 -31 -36 -59 -39 -61 -4 -2 -8 38 -10 89 -2 52 -5 103 -7 113 -3 17 1 19
28 13 74 -16 116 14 131 90 8 44 18 60 47 75 54 28 67 70 53 171 -7 51 -22 65
-77 73 l-42 5 3 42 c5 65 -21 100 -85 119 -29 8 -55 20 -58 25 -9 14 -56 10
-87 -6z m66 -31 c9 -3 16 -10 16 -15 0 -4 -10 -5 -22 0 -17 6 -26 4 -35 -8 -6
-9 -15 -12 -20 -8 -4 5 1 15 11 23 22 16 28 17 50 8z m100 -43 c6 -10 -61 -8
-71 2 -3 4 10 7 30 7 20 0 38 -4 41 -9z m1256 -31 c0 -5 13 -5 31 0 19 6 38 6
48 0 14 -8 13 -9 -4 -9 -11 0 -32 -3 -46 -6 -16 -4 -31 -2 -40 7 -19 19 -44
16 -43 -5 1 -9 -4 -17 -12 -17 -26 0 -13 42 16 52 17 6 50 -8 50 -22z m-1430
-5 c-7 -9 -15 -13 -17 -11 -3 3 -16 1 -29 -4 -19 -7 -24 -6 -24 5 0 15 3 16
39 19 11 0 23 4 27 9 13 13 17 -2 4 -18z m1418 -92 c-6 -8 -13 -22 -14 -30 -4
-25 -14 -28 -14 -5 0 27 21 63 32 55 5 -2 3 -12 -4 -20z m-98 1 c6 -6 -5 -9
-25 -8 -39 2 -44 -2 -47 -39 -2 -28 -18 -26 -18 1 0 32 28 60 56 57 14 -1 29
-6 34 -11z m-1377 -11 c4 -3 -5 -12 -19 -20 -32 -16 -35 -16 -31 0 4 22 35 35
50 20z m271 -4 c3 -3 -7 -6 -22 -7 -15 -1 -28 -6 -30 -10 -10 -30 -45 -72 -60
-72 -24 0 -42 -19 -35 -36 3 -8 0 -14 -6 -14 -13 0 -14 29 -1 50 5 8 20 15 32
15 16 0 27 10 39 33 8 19 22 37 29 42 15 9 45 8 54 -1z m81 -20 c-4 -5 -15 -9
-26 -9 -26 0 -17 15 10 17 12 1 19 -2 16 -8z m-285 -19 c12 -7 12 -12 2 -22
-9 -9 -12 -9 -12 0 0 7 -9 12 -21 12 -11 0 -17 5 -14 10 8 12 25 13 45 0z
m550 -22 c0 -4 -7 -8 -17 -8 -9 0 -14 -3 -10 -6 10 -11 -27 -44 -51 -44 -12 0
-25 -7 -28 -15 -9 -22 -24 -18 -24 5 0 11 7 21 15 21 8 1 25 2 37 3 14 1 24 9
27 21 2 11 7 23 13 26 13 8 38 7 38 -3z m870 -48 c0 -5 -8 -6 -18 -3 -10 2
-30 -7 -46 -22 -16 -14 -31 -23 -35 -20 -12 13 57 64 78 58 12 -3 21 -9 21
-13z m80 -1 c0 -8 -42 -17 -58 -11 -7 2 -10 7 -8 11 6 9 66 10 66 0z m90 1
c-18 -11 -80 -13 -80 -2 0 4 21 8 48 9 33 2 42 -1 32 -7z m-285 -30 c3 -6 -4
-10 -18 -10 -29 0 -46 -18 -41 -45 3 -19 2 -19 -11 -1 -12 16 -12 22 2 42 16
24 56 33 68 14z m-1365 -7 c0 -2 -12 -8 -26 -13 -21 -8 -25 -15 -22 -35 6 -31
-8 -33 -15 -3 -7 27 17 57 44 55 10 -1 19 -3 19 -4z m70 -13 c0 -6 -11 -10
-25 -10 -14 0 -25 4 -25 8 0 4 11 9 25 10 14 1 25 -3 25 -8z m432 -10 c-12
-12 -22 -25 -22 -31 0 -6 -4 -8 -10 -4 -14 9 0 36 24 45 31 13 32 12 8 -10z
m135 -3 c0 -8 -6 -14 -14 -14 -9 0 -10 4 -2 14 6 7 12 13 14 13 1 0 2 -6 2
-13z m-367 -5 c0 -12 -41 -54 -47 -48 -3 3 5 17 18 31 26 27 29 29 29 17z
m-120 -40 c-18 -15 -20 -21 -11 -47 10 -28 10 -29 -4 -11 -8 11 -15 26 -15 35
0 19 30 52 42 45 4 -3 -1 -13 -12 -22z m611 -32 c1 -13 1 -97 0 -112 -1 -7
-16 -21 -34 -32 -81 -46 -157 -87 -158 -84 -1 2 -2 17 -4 33 -4 39 3 65 19 65
24 0 40 45 27 81 -6 18 -9 34 -7 37 3 2 22 6 43 9 21 3 40 7 42 9 9 9 71 3 72
-6z m138 -1 c92 -15 246 -90 266 -129 9 -17 13 -30 10 -30 -3 0 1 -13 9 -29
14 -26 68 -61 95 -61 28 0 116 -179 97 -197 -3 -3 -24 6 -46 21 -22 14 -42 26
-46 26 -3 0 -57 31 -118 69 -62 38 -131 75 -152 82 -21 8 -44 20 -49 27 -6 7
-20 18 -32 25 -12 7 -47 27 -77 45 l-56 34 1 56 c2 82 -4 78 98 61z m-939 -44
c11 -13 10 -14 -4 -9 -9 3 -27 -1 -41 -10 -14 -9 -30 -14 -36 -10 -6 3 -16 -2
-24 -12 -15 -21 -31 -13 -22 11 4 8 17 15 31 15 13 0 37 7 52 15 35 18 29 18
44 0z m525 5 c3 -5 -1 -10 -9 -10 -15 0 -19 -7 -19 -40 0 -9 -7 -16 -16 -17
-9 -1 -25 -4 -36 -6 -11 -3 -24 -6 -28 -6 -5 -1 -7 -9 -5 -19 2 -11 -1 -21 -7
-23 -5 -2 -11 6 -13 18 -3 24 32 55 54 46 7 -3 23 11 36 31 24 37 33 43 43 26z
m759 -15 c3 -8 17 -15 31 -15 14 0 25 -4 25 -9 0 -13 -53 0 -74 18 -11 9 -16
10 -12 4 4 -8 2 -13 -6 -13 -9 0 -9 -3 -2 -8 21 -15 38 -78 22 -88 -4 -3 -8 9
-8 25 0 17 -3 31 -8 31 -13 0 -32 39 -26 55 8 19 50 20 58 0z m172 2 c4 -4 1
-7 -6 -7 -8 0 -24 -10 -37 -22 -31 -29 -41 -16 -12 15 23 23 41 28 55 14z
m-1246 -18 c0 -6 -4 -7 -10 -4 -5 3 -10 11 -10 16 0 6 5 7 10 4 6 -3 10 -11
10 -16z m390 7 c-6 -8 -18 -12 -26 -9 -22 8 -16 18 12 21 22 2 24 0 14 -12z
m-455 -97 c3 -41 8 -108 11 -149 3 -41 7 -100 9 -130 2 -30 6 -89 9 -130 8
-98 4 -107 -39 -102 -28 3 -35 8 -35 27 0 17 6 23 25 23 14 -1 29 2 32 6 4 4
-2 32 -13 64 -10 31 -19 62 -19 67 0 6 -3 15 -6 20 -5 10 -4 46 5 225 3 58 5
118 5 134 1 54 11 20 16 -55z m1509 32 c4 -5 -3 -7 -14 -4 -23 6 -52 -23 -45
-44 2 -7 0 -15 -4 -18 -5 -2 -11 5 -14 16 -10 36 59 80 77 50z m-1089 -71 c-4
-65 -5 -70 -16 -70 -6 0 -57 -27 -112 -61 -56 -34 -128 -77 -160 -96 -32 -19
-60 -33 -62 -31 -14 14 90 215 127 246 16 13 48 7 48 -9 0 -4 15 -11 34 -15
41 -7 92 18 102 51 4 11 11 26 17 33 15 19 24 -2 22 -48z m1155 50 c0 -5 -4
-10 -9 -10 -6 0 -13 5 -16 10 -3 6 1 10 9 10 9 0 16 -4 16 -10z m-215 -81 c2
-41 7 -109 10 -152 5 -67 2 -87 -20 -148 -31 -87 -31 -93 0 -86 17 3 28 -1 34
-12 14 -27 1 -41 -36 -41 l-36 0 8 108 c3 59 9 172 11 251 4 130 9 170 20 158
2 -2 6 -37 9 -78z m-661 36 c9 -14 12 -25 7 -25 -5 0 -13 5 -16 10 -4 6 -12 7
-18 3 -27 -17 -36 -11 -19 13 22 30 26 30 46 -1z m961 15 c3 -5 0 -7 -8 -4 -8
3 -18 0 -22 -5 -7 -12 -25 -6 -25 7 0 12 48 13 55 2z m-369 -70 c0 -38 -4 -70
-7 -70 -4 0 -12 14 -19 30 -7 17 -16 30 -20 30 -5 0 -7 6 -6 13 2 15 38 66 47
67 4 0 6 -31 5 -70z m-484 17 c7 -7 49 -32 93 -56 84 -45 119 -70 75 -53 -111
43 -190 90 -190 114 0 11 7 10 22 -5z m-276 -43 c-32 -30 -54 -43 -64 -39 -9
3 -14 3 -10 0 4 -4 -21 -22 -55 -40 -34 -18 -84 -44 -111 -59 -27 -14 -55 -31
-62 -37 -16 -13 -76 -20 -69 -8 3 4 18 14 33 22 35 18 219 123 297 170 83 49
98 46 41 -9z m-721 -113 c-3 -5 -1 -12 4 -15 6 -4 4 -17 -5 -34 -7 -15 -14
-37 -14 -50 0 -15 -4 -21 -11 -16 -8 5 -9 2 -2 -11 12 -20 -5 -65 -24 -65 -13
0 -12 7 19 137 15 63 25 88 31 78 4 -8 6 -19 2 -24z m1752 -33 c-2 -7 0 -23 4
-35 6 -17 5 -21 -6 -17 -10 4 -13 -1 -9 -20 3 -16 0 -26 -7 -26 -8 0 -7 -6 2
-17 12 -14 12 -16 0 -9 -9 6 -12 5 -9 -5 3 -8 11 -13 17 -11 7 1 10 -2 6 -8
-3 -6 -11 -8 -16 -4 -5 3 -16 0 -24 -6 -13 -10 -15 -8 -15 14 0 15 4 25 8 22
4 -2 8 3 9 12 4 51 27 122 39 122 3 0 4 -6 1 -12z m-1741 -33 c-3 -8 -1 -15 5
-15 6 0 7 -5 4 -10 -4 -6 -1 -19 7 -28 12 -16 11 -16 -6 -2 -18 14 -18 13 -11
-9 5 -17 4 -22 -6 -18 -8 2 -12 11 -10 18 2 8 5 25 7 39 1 14 3 28 3 33 1 4 4
7 7 7 3 0 4 -7 0 -15z m117 -55 c3 -11 -1 -27 -10 -35 -8 -8 -10 -15 -4 -15 6
0 11 -4 11 -10 0 -5 -7 -10 -16 -10 -13 0 -15 7 -9 37 10 57 19 67 28 33z
m1479 -5 c1 -11 8 -24 13 -28 6 -5 3 -7 -7 -3 -10 3 -20 1 -23 -4 -6 -9 17
-15 40 -10 6 1 7 -2 3 -6 -5 -4 -21 -9 -37 -10 l-30 -4 17 45 c18 48 19 49 24
20z m-1292 -74 c0 -79 -10 -100 -38 -82 -13 8 -27 135 -17 151 3 6 17 10 31
10 23 0 24 -2 24 -79z m76 2 c-1 -62 -5 -78 -17 -81 -13 -2 -15 8 -14 70 3 91
2 88 18 88 10 0 13 -19 13 -77z m1074 -3 c0 -76 -1 -80 -22 -80 -22 0 -23 4
-23 80 -1 77 0 80 22 80 22 0 23 -3 23 -80z m297 58 c-3 -8 -6 -5 -6 6 -1 11
2 17 5 13 3 -3 4 -12 1 -19z m-1620 -30 c2 -17 0 -19 -7 -8 -5 8 -6 18 -4 22
8 12 10 10 11 -14z m-105 -7 c-4 -11 -7 -11 -10 -3 -3 10 -7 10 -18 1 -11 -9
-14 -8 -14 2 0 11 -2 11 -10 -1 -5 -8 -10 -10 -10 -4 0 16 6 19 38 19 22 1 28
-3 24 -14z m1745 4 c0 -8 -4 -12 -9 -9 -4 3 -8 9 -8 15 0 5 4 9 8 9 5 0 9 -7
9 -15z m-1683 -71 c10 -25 -2 -34 -45 -34 -35 0 -39 3 -39 25 0 22 4 25 39 25
26 0 41 -5 45 -16z m1622 -9 c-2 -16 -12 -21 -49 -23 -44 -3 -47 -1 -47 21 0
22 4 24 50 23 43 -1 49 -3 46 -21z"/>
<path d="M2120 2765 c-8 -10 -4 -18 20 -35 16 -12 30 -30 30 -41 0 -18 39 -42
58 -37 4 1 20 -6 35 -16 24 -16 30 -17 37 -6 14 22 -7 48 -48 60 -24 7 -44 22
-57 42 -24 37 -59 53 -75 33z"/>
<path d="M1717 3206 c-9 -24 10 -29 107 -29 83 0 91 2 91 19 0 17 -9 19 -96
22 -79 2 -98 0 -102 -12z"/>
<path d="M2013 3204 c-3 -8 -3 -18 1 -21 8 -8 245 -8 253 0 3 4 3 13 0 20 -8
22 -246 22 -254 1z"/>
<path d="M2356 3204 c-9 -25 44 -38 88 -21 9 4 13 13 10 21 -7 19 -90 20 -98
0z"/>
<path d="M1595 3131 c-12 -20 6 -31 46 -31 33 0 40 3 37 18 -4 20 -72 30 -83
13z"/>
<path d="M1742 3123 c4 -20 45 -30 96 -25 23 3 32 9 32 23 0 17 -8 19 -66 19
-57 0 -65 -2 -62 -17z"/>
<path d="M2011 3131 c-10 -6 -9 -11 3 -23 21 -22 353 -19 366 2 6 9 5 17 -3
22 -16 10 -349 9 -366 -1z"/>
<path d="M2273 2937 c-10 -16 26 -36 55 -31 44 7 52 12 46 29 -5 12 -18 15
-51 13 -24 -1 -47 -6 -50 -11z"/>
<path d="M175 1763 c-57 -10 -63 -14 -79 -53 -27 -68 -9 -114 79 -199 55 -53
68 -84 43 -109 -23 -23 -54 -14 -71 23 -17 35 -55 50 -59 23 0 -7 -2 -20 -3
-28 -5 -45 66 -104 114 -95 37 7 82 46 88 76 12 62 0 92 -65 156 -52 50 -82
90 -82 107 0 13 34 36 55 36 18 0 26 -8 35 -36 9 -28 17 -34 33 -32 51 7 21
107 -36 125 -18 5 -41 7 -52 6z"/>
<path d="M335 1758 c-7 -5 -11 -17 -8 -28 5 -19 18 -24 53 -21 39 3 42 -11 41
-187 -2 -147 1 -172 15 -187 15 -15 18 -15 32 -1 13 12 15 46 15 191 -1 96 2
175 6 176 70 7 97 23 82 48 -7 10 -37 14 -115 15 -59 1 -113 -2 -121 -6z"/>
<path d="M639 1739 c-44 -41 -50 -69 -48 -236 1 -124 4 -156 16 -169 27 -27
45 4 44 74 -1 66 7 77 54 80 47 3 54 -7 56 -86 l2 -72 29 0 c33 0 30 -14 32
175 3 210 -11 243 -105 255 -46 6 -53 4 -80 -21z m105 -54 c11 -11 15 -34 15
-75 l-1 -60 -49 0 c-44 0 -49 3 -55 26 -8 31 1 91 17 110 15 19 54 18 73 -1z"/>
<path d="M1511 1758 c-12 -4 -21 -4 -21 -1 0 4 -13 -6 -30 -22 -38 -36 -43
-66 -43 -244 0 -129 2 -146 19 -158 29 -21 45 3 45 71 1 68 15 85 66 83 l38
-2 3 -72 c2 -57 7 -75 20 -82 40 -21 46 -1 47 161 1 84 -2 169 -6 188 -13 58
-84 99 -138 78z m63 -71 c14 -10 17 -25 14 -72 -3 -58 -4 -60 -32 -63 -58 -7
-72 3 -75 54 -4 77 43 118 93 81z"/>
<path d="M1723 1762 c-15 -2 -23 -10 -23 -22 0 -20 34 -45 49 -35 5 3 16 2 25
-1 14 -5 16 -30 16 -179 0 -142 3 -176 15 -189 9 -8 22 -13 30 -10 17 7 18 22
16 230 -1 106 1 133 14 144 8 7 20 10 27 7 36 -13 77 30 46 49 -12 7 -174 12
-215 6z"/>
<path d="M2163 1753 c-55 -22 -66 -59 -66 -210 0 -146 7 -168 66 -203 36 -22
78 -19 117 9 45 32 53 65 53 203 -1 112 -3 131 -22 162 -12 19 -30 37 -39 40
-38 12 -79 12 -109 -1z m91 -68 c21 -22 22 -239 1 -272 -19 -29 -59 -30 -78
-3 -20 29 -18 267 3 280 22 14 57 12 74 -5z"/>
<path d="M2478 1759 c-16 -4 -28 -5 -28 -2 0 4 -10 -2 -21 -13 -41 -36 -49
-74 -49 -238 0 -130 3 -157 16 -171 15 -15 19 -15 32 -2 12 12 15 48 16 175 1
174 6 192 56 192 47 0 52 -16 55 -192 1 -90 3 -166 4 -169 3 -16 32 -17 46 -2
13 13 16 42 14 176 -1 163 -7 197 -42 226 -24 19 -70 28 -99 20z"/>
<path d="M2796 1757 c-16 -11 -17 -20 -11 -53 5 -21 9 -48 10 -59 1 -11 5 -27
9 -35 3 -8 8 -33 10 -55 14 -123 45 -224 72 -226 8 -1 20 -2 27 -3 37 -6 70
39 81 109 3 22 8 51 11 65 3 14 8 43 11 65 3 22 9 56 13 75 4 19 7 45 6 58 -1
12 2 22 6 22 12 0 3 32 -12 40 -26 15 -46 -13 -58 -80 -6 -36 -13 -75 -15 -86
-2 -12 -7 -39 -10 -60 -26 -170 -39 -174 -61 -19 -2 17 -6 39 -8 50 -2 11 -8
38 -12 60 -5 22 -9 43 -10 48 -2 4 -3 18 -4 31 0 13 -9 33 -18 45 -16 19 -20
20 -37 8z"/>
<path d="M3952 1762 c-29 -4 -73 -63 -74 -99 -1 -42 24 -83 92 -150 63 -63 70
-81 44 -108 -25 -24 -57 -15 -73 23 -15 33 -43 43 -58 20 -24 -40 45 -129 95
-122 6 1 20 2 30 3 34 2 73 48 79 91 5 35 1 48 -28 90 -19 28 -36 50 -39 50
-10 0 -70 59 -70 69 0 5 -4 11 -10 13 -6 2 -4 13 3 28 9 18 21 25 41 25 28 0
38 -10 50 -47 7 -22 44 -24 52 -3 8 21 -2 58 -23 84 -19 23 -72 39 -111 33z"/>
<path d="M886 1752 c-11 -18 -8 -169 4 -193 6 -13 26 -36 43 -51 29 -24 32
-32 33 -90 2 -86 2 -85 19 -92 29 -11 45 22 45 93 0 63 2 69 31 90 40 30 51
61 50 155 -1 86 -8 102 -39 91 -19 -5 -21 -14 -20 -87 2 -73 -1 -83 -21 -99
-55 -45 -93 -6 -91 93 3 96 3 98 -24 98 -14 0 -27 -4 -30 -8z"/>
<path d="M1213 1750 c-44 -18 -53 -57 -50 -207 2 -76 8 -147 14 -158 29 -52
86 -74 132 -51 28 15 69 56 56 56 -4 0 -2 6 4 14 9 11 10 20 1 35 -16 30 -35
26 -59 -14 -25 -42 -66 -49 -80 -12 -10 27 -8 257 2 275 16 25 57 13 78 -23
21 -34 58 -48 60 -22 6 51 -19 101 -56 111 -29 8 -76 6 -102 -4z"/>
<path d="M1997 1743 c-3 -10 -5 -105 -5 -211 1 -173 3 -194 18 -202 36 -19 44
11 45 185 1 225 -1 245 -30 245 -14 0 -26 -7 -28 -17z"/>
<path d="M3085 1750 c-3 -5 -6 -98 -7 -207 0 -179 1 -198 18 -210 15 -11 20
-11 32 1 11 10 13 56 13 210 0 108 -3 201 -6 206 -8 13 -42 13 -50 0z"/>
<path d="M3206 1743 c-3 -10 -5 -105 -4 -211 2 -162 5 -195 18 -202 23 -12
138 -6 152 8 22 22 -4 47 -53 50 -24 2 -45 5 -48 7 -2 3 -5 80 -6 172 -1 92
-3 174 -3 181 -3 19 -50 15 -56 -5z"/>
<path d="M3403 1743 c-3 -9 -6 -101 -7 -206 0 -222 -3 -216 100 -213 66 2 88
14 77 43 -5 14 -26 21 -78 25 l-30 3 -1 174 c-1 136 -4 175 -15 182 -22 13
-39 11 -46 -8z"/>
<path d="M3625 1738 c-33 -29 -41 -81 -38 -253 2 -163 1 -152 16 -158 29 -11
42 12 47 85 l5 73 35 3 c53 4 62 -8 66 -78 4 -72 17 -95 45 -79 19 9 20 21 18
176 -1 222 -16 253 -124 253 -31 0 -51 -7 -70 -22z m119 -60 c7 -13 13 -45 12
-73 l-1 -50 -50 0 -50 0 -3 52 c-2 29 2 62 8 73 15 28 65 27 84 -2z"/>
<path d="M632 1098 c-54 -27 -34 -105 32 -123 22 -6 46 -21 53 -32 13 -19 12
-23 -7 -41 -31 -28 -85 -15 -85 21 0 21 -30 13 -33 -9 -4 -27 40 -64 75 -64
34 0 80 26 88 50 12 39 -4 77 -40 94 -19 9 -39 15 -45 14 -6 -2 -18 6 -26 18
-12 17 -12 23 -1 38 17 23 50 14 64 -16 8 -19 10 -19 26 -4 20 21 14 40 -19
55 -30 13 -52 13 -82 -1z"/>
<path d="M830 1086 c0 -13 -10 -36 -22 -52 -13 -15 -17 -25 -11 -21 19 12 30
-22 31 -92 1 -69 4 -76 25 -68 11 4 15 25 16 78 1 56 5 75 18 85 17 13 17 15
1 25 -11 6 -18 22 -18 39 0 23 -5 30 -20 30 -14 0 -20 -7 -20 -24z"/>
<path d="M1433 1095 c-13 -10 -16 -30 -15 -106 1 -159 -1 -151 22 -139 15 8
20 21 20 50 0 61 29 54 73 -17 18 -29 32 -41 42 -37 20 8 19 24 -5 54 -25 31
-25 39 -1 64 28 30 31 77 7 108 -17 23 -120 40 -143 23z m98 -33 c46 -38 24
-92 -38 -92 -33 0 -33 0 -33 49 0 49 3 53 41 60 4 0 17 -7 30 -17z"/>
<path d="M1845 1100 c-4 -6 -6 -52 -6 -103 0 -156 -1 -149 19 -145 15 3 17 18
18 131 1 99 -1 127 -12 127 -7 0 -16 -5 -19 -10z"/>
<path d="M2817 1093 c-23 -27 -40 -100 -29 -131 5 -15 8 -45 6 -67 -3 -48 3
-60 22 -44 9 7 14 31 14 64 0 37 5 57 17 66 9 8 19 13 22 11 3 -2 7 1 9 6 1 5
-9 12 -23 16 -34 9 -34 48 0 66 14 7 25 17 25 22 0 15 -47 8 -63 -9z"/>
<path d="M3439 1093 c-10 -11 -14 -50 -16 -130 -1 -105 0 -113 18 -113 10 0
19 6 20 13 0 6 1 38 3 69 2 62 13 82 42 76 16 -3 19 -14 22 -73 3 -89 7 -101
27 -85 20 16 21 138 1 165 -7 10 -27 20 -44 21 -43 3 -52 11 -48 44 4 34 -5
38 -25 13z"/>
<path d="M2381 1086 c-5 -6 -8 -60 -7 -121 1 -96 3 -110 19 -113 13 -3 17 4
18 27 2 53 3 56 21 59 12 2 27 -11 45 -42 26 -42 54 -58 67 -37 3 4 -6 21 -19
37 -31 36 -31 39 0 70 14 14 25 33 25 44 0 32 -22 69 -44 76 -36 12 -116 11
-125 0z m116 -40 c11 -33 10 -40 -5 -58 -22 -27 -70 -24 -76 5 -4 18 -3 53 3
77 0 4 17 4 36 2 24 -3 37 -10 42 -26z"/>
<path d="M966 1031 c-4 -6 1 -14 11 -17 56 -17 73 -52 24 -48 -37 2 -59 -13
-65 -48 -7 -41 25 -68 80 -68 36 0 46 4 53 21 11 31 3 132 -12 147 -18 18 -83
27 -91 13z m48 -97 c9 -3 16 -14 16 -24 0 -20 -23 -32 -45 -24 -18 7 -20 40
-2 47 6 3 13 6 14 6 1 1 8 -2 17 -5z"/>
<path d="M1131 1031 c-18 -11 -18 -100 -1 -141 10 -24 20 -31 51 -36 46 -8 52
-31 12 -40 -47 -10 -54 -14 -48 -24 3 -5 22 -10 41 -10 37 0 73 28 75 58 5
119 3 192 -8 196 -19 7 -27 -14 -29 -69 -1 -27 -2 -55 -3 -61 -1 -16 -43 -26
-55 -14 -6 6 -11 39 -11 75 -2 71 -4 78 -24 66z"/>
<path d="M1661 1023 c-16 -13 -24 -32 -27 -63 -10 -109 89 -154 140 -63 12 22
-11 23 -38 2 -15 -12 -34 -18 -43 -15 -12 5 -8 13 21 41 21 19 41 35 46 35 14
0 18 38 6 55 -18 25 -78 30 -105 8z m67 -22 c10 -6 6 -15 -20 -34 -32 -26 -33
-26 -36 -6 -6 36 26 59 56 40z"/>
<path d="M1962 1034 c-17 -8 -5 -24 19 -24 24 0 47 -20 42 -37 -2 -6 -16 -9
-33 -7 -20 4 -35 -1 -49 -15 -44 -44 -9 -105 56 -100 59 4 68 12 66 56 -1 21
-2 50 -2 64 -1 14 -7 33 -13 42 -14 18 -64 30 -86 21z m53 -123 c0 -15 -6 -25
-16 -26 -27 -4 -42 11 -34 34 10 32 50 25 50 -8z"/>
<path d="M2103 1033 c-9 -3 -7 -15 7 -43 20 -40 22 -76 4 -88 -16 -11 -23 -37
-14 -52 6 -10 16 -5 38 20 l30 32 16 -30 c11 -21 21 -29 31 -26 21 8 19 27 -5
54 -25 29 -25 46 1 89 16 27 18 36 7 42 -9 6 -20 0 -35 -19 l-23 -27 -22 27
c-13 14 -29 24 -35 21z"/>
<path d="M2612 1020 c-23 -21 -26 -33 -23 -85 3 -63 40 -95 94 -81 19 4 47 41
47 61 0 12 -21 3 -38 -15 -14 -15 -25 -18 -40 -13 -20 8 -18 11 28 48 28 22
50 47 50 56 0 43 -81 63 -118 29z m73 -28 c0 -15 -51 -49 -60 -40 -3 3 -1 17
5 32 7 20 16 27 33 24 12 -2 22 -9 22 -16z"/>
<path d="M2940 1020 c-11 -11 -20 -30 -21 -42 -1 -45 -1 -103 0 -115 2 -20 31
-15 32 5 1 9 2 40 3 69 2 50 18 84 38 80 6 -1 13 4 15 11 8 20 -45 14 -67 -8z"/>
<path d="M3060 1013 c-13 -17 -17 -37 -16 -73 4 -59 26 -90 66 -90 32 0 72 29
76 53 3 22 -8 21 -39 -3 -14 -11 -32 -17 -41 -14 -17 7 -22 24 -7 24 5 0 28
18 50 39 45 43 46 63 3 80 -39 16 -71 10 -92 -16z m77 -18 c2 -6 -10 -21 -27
-33 l-30 -23 0 29 c0 16 3 32 7 36 10 10 46 3 50 -9z"/>
<path d="M3262 1024 c-12 -8 -22 -23 -22 -33 0 -25 32 -51 62 -51 31 0 45 -27
25 -48 -12 -11 -19 -11 -36 -3 -11 7 -21 16 -21 21 0 12 -27 13 -34 1 -3 -5 4
-20 15 -35 27 -34 77 -35 107 -3 12 13 22 31 22 40 0 27 -37 57 -70 57 -20 0
-30 5 -30 15 0 20 28 31 43 16 16 -16 37 -14 37 4 0 33 -61 45 -98 19z"/>
<path d="M1327 886 c-7 -18 8 -40 22 -32 6 4 11 13 11 21 0 18 -27 27 -33 11z"/>
<path d="M2281 881 c-11 -20 -5 -31 16 -31 7 0 13 11 13 25 0 29 -15 33 -29 6z"/>
</g>
</svg>
